name ./resultDataOpenSim/trcMotMarkerGrf/sub06/grf-03-06.mot
datacolumns 19
datarows 20
range 1.06400000 1.14000000
endheader

                time	     ground_force_vx	     ground_force_vy	     ground_force_vz	     ground_force_px	     ground_force_py	     ground_force_pz	   l_ground_force_vx	   l_ground_force_vy	   l_ground_force_vz	   l_ground_force_px	   l_ground_force_py	   l_ground_force_pz	     ground_torque_x	     ground_torque_y	     ground_torque_z	   l_ground_torque_x	   l_ground_torque_y	   l_ground_torque_z	
          1.06400000	          0.00000000	          0.00000000	          0.00000000	          0.00000000	          0.00000000	          0.00000000	        122.31839587	        696.08303555	         29.17105174	          0.04517528	         -0.05000000	          0.00924475	          0.00000000	          0.00000000	          0.00000000	          0.00000000	         -3.42126789	          0.00000000	
          1.06800000	          0.00000000	          0.00000000	          0.00000000	          0.00000000	          0.00000000	          0.00000000	        129.37960037	        705.72707687	         29.17207161	          0.04571700	         -0.05000000	          0.00949068	          0.00000000	          0.00000000	          0.00000000	          0.00000000	         -3.42817984	          0.00000000	
          1.07200000	          0.00000000	          0.00000000	          0.00000000	          0.00000000	          0.00000000	          0.00000000	        136.32536493	        713.30430738	         29.10391640	          0.04625774	         -0.05000000	          0.00973737	          0.00000000	          0.00000000	          0.00000000	          0.00000000	         -3.42448094	          0.00000000	
          1.07600000	          0.00000000	          0.00000000	          0.00000000	          0.00000000	          0.00000000	          0.00000000	        143.14567195	        718.75810682	         28.97628666	          0.04675382	         -0.05000000	          0.00996997	          0.00000000	          0.00000000	          0.00000000	          0.00000000	         -3.41124579	          0.00000000	
          1.08000000	          0.00000000	          0.00000000	          0.00000000	          0.00000000	          0.00000000	          0.00000000	        149.83408687	        722.06122321	         28.81207528	          0.04721212	         -0.05000000	          0.01020355	          0.00000000	          0.00000000	          0.00000000	          0.00000000	         -3.38847020	          0.00000000	
          1.08400000	          0.00000000	          0.00000000	          0.00000000	          0.00000000	          0.00000000	          0.00000000	        156.36400455	        723.20814506	         28.62930996	          0.04766759	         -0.05000000	          0.01046493	          0.00000000	          0.00000000	          0.00000000	          0.00000000	         -3.35482442	          0.00000000	
          1.08800000	          0.00000000	          0.00000000	          0.00000000	          0.00000000	          0.00000000	          0.00000000	        162.68337103	        722.19048666	         28.41219528	          0.04814860	         -0.05000000	          0.01076947	          0.00000000	          0.00000000	          0.00000000	          0.00000000	         -3.30795562	          0.00000000	
          1.09200000	          0.00000000	          0.00000000	          0.00000000	          0.00000000	          0.00000000	          0.00000000	        168.72326462	        718.96607068	         28.10423508	          0.04865851	         -0.05000000	          0.01110733	          0.00000000	          0.00000000	          0.00000000	          0.00000000	         -3.24507146	          0.00000000	
          1.09600000	          0.00000000	          0.00000000	          0.00000000	          0.00000000	          0.00000000	          0.00000000	        174.41258878	        713.43825282	         27.62648360	          0.04917572	         -0.05000000	          0.01144371	          0.00000000	          0.00000000	          0.00000000	          0.00000000	         -3.16351510	          0.00000000	
          1.10000000	          0.00000000	          0.00000000	          0.00000000	          0.00000000	          0.00000000	          0.00000000	        179.67373259	        705.44169913	         26.90717307	          0.04968775	         -0.05000000	          0.01175176	          0.00000000	          0.00000000	          0.00000000	          0.00000000	         -3.06119472	          0.00000000	
          1.10400000	        -11.74000185	         36.70587703	          4.44818197	          0.68510950	          0.00000000	          0.13753197	        184.39495073	        694.71448350	         25.90888897	          0.05020684	         -0.05000000	          0.01203182	          0.00000000	          0.19414824	          0.00000000	          0.00000000	         -2.93686135	          0.00000000	
          1.10800000	        -28.11752984	        148.55783663	         11.34205734	          0.68902792	          0.00000000	          0.13548965	        188.40875513	        680.88845953	         24.63923327	          0.05074881	         -0.05000000	          0.01229692	          0.00000000	          0.16424323	          0.00000000	          0.00000000	         -2.79032495	          0.00000000	
          1.11200000	        -43.26427721	        250.89766242	         18.01887906	          0.69253376	          0.00000000	          0.13393927	        191.49959602	        663.52783532	         23.13548792	          0.05129935	         -0.05000000	          0.01253821	          0.00000000	          0.07965696	          0.00000000	          0.00000000	         -2.62270887	          0.00000000	
          1.11600000	        -56.53603780	        336.72731286	         23.94661821	          0.69513054	          0.00000000	          0.13344895	        193.43381815	        642.17180480	         21.44471099	          0.05184227	         -0.05000000	          0.01273621	          0.00000000	         -0.08990930	          0.00000000	          0.00000000	         -2.43670115	          0.00000000	
          1.12000000	        -67.87793635	        404.27436396	         28.29519601	          0.69658553	          0.00000000	          0.13419676	        193.97490294	        616.39577579	         19.62686714	          0.05237821	         -0.05000000	          0.01287682	          0.00000000	         -0.35784587	          0.00000000	          0.00000000	         -2.23663477	          0.00000000	
          1.12400000	        -77.59381415	        456.07354546	         30.24207481	          0.69770324	          0.00000000	          0.13556693	        192.85447923	        585.93554713	         17.74901511	          0.05293449	         -0.05000000	          0.01295425	          0.00000000	         -0.71013370	          0.00000000	          0.00000000	         -2.02826288	          0.00000000	
          1.12800000	        -86.39471189	        495.78682900	         29.34956755	          0.69967402	          0.00000000	          0.13684960	        189.73576293	        550.79246145	         15.85310084	          0.05359199	         -0.05000000	          0.01299110	          0.00000000	         -1.09928315	          0.00000000	          0.00000000	         -1.81815091	          0.00000000	
          1.13200000	        -95.21819093	        525.73937012	         25.60766371	          0.70288599	          0.00000000	          0.13800684	        184.24462765	        511.23524104	         13.95531735	          0.05443265	         -0.05000000	          0.01302194	          0.00000000	         -1.44823811	          0.00000000	          0.00000000	         -1.61265871	          0.00000000	
          1.13600000	       -104.66705335	        547.27094548	         19.32072696	          0.70670708	          0.00000000	          0.13946693	        176.07634872	        467.76933253	         12.08012082	          0.05552945	         -0.05000000	          0.01307294	          0.00000000	         -1.66735346	          0.00000000	          0.00000000	         -1.41673581	          0.00000000	
          1.14000000	       -114.89927840	        562.63727916	         11.07760573	          0.71035414	          0.00000000	          0.14141094	        165.10231337	        421.19564629	         10.26312495	          0.05694028	         -0.05000000	          0.01315641	          0.00000000	         -1.68124648	          0.00000000	          0.00000000	         -1.23307635	          0.00000000	
